<?xml version="1.0" encoding="UTF-8" standalone="no"?><svg xmlns="http://www.w3.org/2000/svg" xmlns:xlink="http://www.w3.org/1999/xlink" contentScriptType="application/ecmascript" contentStyleType="text/css" height="472px" preserveAspectRatio="none" style="width:225px;height:472px;background:#FFFFFF;" version="1.1" viewBox="0 0 225 472" width="225px" zoomAndPan="magnify"><defs/><g><text fill="#000000" font-family="sans-serif" font-size="12" lengthAdjust="spacing" textLength="19" x="16" y="17.1387">src</text><text fill="#000000" font-family="sans-serif" font-size="12" lengthAdjust="spacing" textLength="40" x="26" y="31.1074">assets</text><text fill="#000000" font-family="sans-serif" font-size="12" lengthAdjust="spacing" textLength="75" x="26" y="45.0762">components</text><text fill="#000000" font-family="sans-serif" font-size="12" lengthAdjust="spacing" textLength="121" x="36" y="59.0449">ErrorMessageModal</text><text fill="#000000" font-family="sans-serif" font-size="12" lengthAdjust="spacing" textLength="40" x="36" y="73.0137">Footer</text><text fill="#000000" font-family="sans-serif" font-size="12" lengthAdjust="spacing" textLength="42" x="36" y="86.9824">Navbar</text><text fill="#000000" font-family="sans-serif" font-size="12" lengthAdjust="spacing" textLength="52" x="26" y="100.9512">services</text><text fill="#000000" font-family="sans-serif" font-size="12" lengthAdjust="spacing" textLength="37" x="26" y="114.9199">config</text><text fill="#000000" font-family="sans-serif" font-size="12" lengthAdjust="spacing" textLength="17" x="36" y="128.8887">API</text><text fill="#000000" font-family="sans-serif" font-size="12" lengthAdjust="spacing" textLength="66" x="36" y="142.8574">arithmetics</text><text fill="#000000" font-family="sans-serif" font-size="12" lengthAdjust="spacing" textLength="32" x="26" y="156.8262">store</text><text fill="#000000" font-family="sans-serif" font-size="12" lengthAdjust="spacing" textLength="24" x="26" y="170.7949">utils</text><text fill="#000000" font-family="sans-serif" font-size="12" lengthAdjust="spacing" textLength="35" x="26" y="184.7637">views</text><text fill="#000000" font-family="sans-serif" font-size="12" lengthAdjust="spacing" textLength="72" x="36" y="198.7324">landingPage</text><text fill="#000000" font-family="sans-serif" font-size="12" lengthAdjust="spacing" textLength="36" x="46" y="212.7012">Graph</text><text fill="#000000" font-family="sans-serif" font-size="12" lengthAdjust="spacing" textLength="47" x="46" y="226.6699">Sidebar</text><text fill="#000000" font-family="sans-serif" font-size="12" lengthAdjust="spacing" textLength="96" x="56" y="240.6387">DownloadModal</text><text fill="#000000" font-family="sans-serif" font-size="12" lengthAdjust="spacing" textLength="105" x="56" y="254.6074">InputComponents</text><text fill="#000000" font-family="sans-serif" font-size="12" lengthAdjust="spacing" textLength="128" x="66" y="268.5762">LatitudeBandSelector</text><text fill="#000000" font-family="sans-serif" font-size="12" lengthAdjust="spacing" textLength="148" x="66" y="282.5449">ModelGroupConfigurator</text><text fill="#000000" font-family="sans-serif" font-size="12" lengthAdjust="spacing" textLength="134" x="76" y="296.5137">AddModelGroupModal</text><text fill="#000000" font-family="sans-serif" font-size="12" lengthAdjust="spacing" textLength="132" x="76" y="310.4824">EditModelGroupModal</text><text fill="#000000" font-family="sans-serif" font-size="12" lengthAdjust="spacing" textLength="102" x="76" y="324.4512">ModelGroupCard</text><text fill="#000000" font-family="sans-serif" font-size="12" lengthAdjust="spacing" textLength="111" x="66" y="338.4199">OffsetConfigurator</text><text fill="#000000" font-family="sans-serif" font-size="12" lengthAdjust="spacing" textLength="84" x="66" y="352.3887">PlotNameField</text><text fill="#000000" font-family="sans-serif" font-size="12" lengthAdjust="spacing" textLength="102" x="66" y="366.3574">PlotTypeSelector</text><text fill="#000000" font-family="sans-serif" font-size="12" lengthAdjust="spacing" textLength="124" x="66" y="380.3262">ReferenceYearSlider</text><text fill="#000000" font-family="sans-serif" font-size="12" lengthAdjust="spacing" textLength="92" x="66" y="394.2949">RegionSelector</text><text fill="#000000" font-family="sans-serif" font-size="12" lengthAdjust="spacing" textLength="126" x="66" y="408.2637">TimeCheckboxGroup</text><text fill="#000000" font-family="sans-serif" font-size="12" lengthAdjust="spacing" textLength="142" x="76" y="422.2324">SeasonCheckboxGroup</text><text fill="#000000" font-family="sans-serif" font-size="12" lengthAdjust="spacing" textLength="68" x="66" y="436.2012">XAxisSlider</text><text fill="#000000" font-family="sans-serif" font-size="12" lengthAdjust="spacing" textLength="67" x="66" y="450.1699">YAxisSlider</text><text fill="#000000" font-family="sans-serif" font-size="12" lengthAdjust="spacing" textLength="45" x="56" y="464.1387">Section</text><rect fill="none" height="2" style="stroke:#888888;stroke-width:1.0;" width="2" x="9" y="11.9844"/><line style="stroke:#888888;stroke-width:1.0;" x1="10" x2="10" y1="14.9844" y2="26.9531"/><line style="stroke:#888888;stroke-width:1.0;" x1="10" x2="18" y1="26.9531" y2="26.9531"/><rect fill="none" height="2" style="stroke:#888888;stroke-width:1.0;" width="2" x="19" y="39.9219"/><line style="stroke:#888888;stroke-width:1.0;" x1="10" x2="10" y1="14.9844" y2="40.9219"/><line style="stroke:#888888;stroke-width:1.0;" x1="10" x2="18" y1="40.9219" y2="40.9219"/><line style="stroke:#888888;stroke-width:1.0;" x1="20" x2="20" y1="42.9219" y2="54.8906"/><line style="stroke:#888888;stroke-width:1.0;" x1="20" x2="28" y1="54.8906" y2="54.8906"/><line style="stroke:#888888;stroke-width:1.0;" x1="20" x2="20" y1="42.9219" y2="68.8594"/><line style="stroke:#888888;stroke-width:1.0;" x1="20" x2="28" y1="68.8594" y2="68.8594"/><line style="stroke:#888888;stroke-width:1.0;" x1="20" x2="20" y1="42.9219" y2="82.8281"/><line style="stroke:#888888;stroke-width:1.0;" x1="20" x2="28" y1="82.8281" y2="82.8281"/><line style="stroke:#888888;stroke-width:1.0;" x1="10" x2="10" y1="14.9844" y2="96.7969"/><line style="stroke:#888888;stroke-width:1.0;" x1="10" x2="18" y1="96.7969" y2="96.7969"/><rect fill="none" height="2" style="stroke:#888888;stroke-width:1.0;" width="2" x="19" y="109.7656"/><line style="stroke:#888888;stroke-width:1.0;" x1="10" x2="10" y1="14.9844" y2="110.7656"/><line style="stroke:#888888;stroke-width:1.0;" x1="10" x2="18" y1="110.7656" y2="110.7656"/><line style="stroke:#888888;stroke-width:1.0;" x1="20" x2="20" y1="112.7656" y2="124.7344"/><line style="stroke:#888888;stroke-width:1.0;" x1="20" x2="28" y1="124.7344" y2="124.7344"/><line style="stroke:#888888;stroke-width:1.0;" x1="20" x2="20" y1="112.7656" y2="138.7031"/><line style="stroke:#888888;stroke-width:1.0;" x1="20" x2="28" y1="138.7031" y2="138.7031"/><line style="stroke:#888888;stroke-width:1.0;" x1="10" x2="10" y1="14.9844" y2="152.6719"/><line style="stroke:#888888;stroke-width:1.0;" x1="10" x2="18" y1="152.6719" y2="152.6719"/><line style="stroke:#888888;stroke-width:1.0;" x1="10" x2="10" y1="14.9844" y2="166.6406"/><line style="stroke:#888888;stroke-width:1.0;" x1="10" x2="18" y1="166.6406" y2="166.6406"/><rect fill="none" height="2" style="stroke:#888888;stroke-width:1.0;" width="2" x="19" y="179.6094"/><line style="stroke:#888888;stroke-width:1.0;" x1="10" x2="10" y1="14.9844" y2="180.6094"/><line style="stroke:#888888;stroke-width:1.0;" x1="10" x2="18" y1="180.6094" y2="180.6094"/><rect fill="none" height="2" style="stroke:#888888;stroke-width:1.0;" width="2" x="29" y="193.5781"/><line style="stroke:#888888;stroke-width:1.0;" x1="20" x2="20" y1="182.6094" y2="194.5781"/><line style="stroke:#888888;stroke-width:1.0;" x1="20" x2="28" y1="194.5781" y2="194.5781"/><line style="stroke:#888888;stroke-width:1.0;" x1="30" x2="30" y1="196.5781" y2="208.5469"/><line style="stroke:#888888;stroke-width:1.0;" x1="30" x2="38" y1="208.5469" y2="208.5469"/><rect fill="none" height="2" style="stroke:#888888;stroke-width:1.0;" width="2" x="39" y="221.5156"/><line style="stroke:#888888;stroke-width:1.0;" x1="30" x2="30" y1="196.5781" y2="222.5156"/><line style="stroke:#888888;stroke-width:1.0;" x1="30" x2="38" y1="222.5156" y2="222.5156"/><line style="stroke:#888888;stroke-width:1.0;" x1="40" x2="40" y1="224.5156" y2="236.4844"/><line style="stroke:#888888;stroke-width:1.0;" x1="40" x2="48" y1="236.4844" y2="236.4844"/><rect fill="none" height="2" style="stroke:#888888;stroke-width:1.0;" width="2" x="49" y="249.4531"/><line style="stroke:#888888;stroke-width:1.0;" x1="40" x2="40" y1="224.5156" y2="250.4531"/><line style="stroke:#888888;stroke-width:1.0;" x1="40" x2="48" y1="250.4531" y2="250.4531"/><line style="stroke:#888888;stroke-width:1.0;" x1="50" x2="50" y1="252.4531" y2="264.4219"/><line style="stroke:#888888;stroke-width:1.0;" x1="50" x2="58" y1="264.4219" y2="264.4219"/><rect fill="none" height="2" style="stroke:#888888;stroke-width:1.0;" width="2" x="59" y="277.3906"/><line style="stroke:#888888;stroke-width:1.0;" x1="50" x2="50" y1="252.4531" y2="278.3906"/><line style="stroke:#888888;stroke-width:1.0;" x1="50" x2="58" y1="278.3906" y2="278.3906"/><line style="stroke:#888888;stroke-width:1.0;" x1="60" x2="60" y1="280.3906" y2="292.3594"/><line style="stroke:#888888;stroke-width:1.0;" x1="60" x2="68" y1="292.3594" y2="292.3594"/><line style="stroke:#888888;stroke-width:1.0;" x1="60" x2="60" y1="280.3906" y2="306.3281"/><line style="stroke:#888888;stroke-width:1.0;" x1="60" x2="68" y1="306.3281" y2="306.3281"/><line style="stroke:#888888;stroke-width:1.0;" x1="60" x2="60" y1="280.3906" y2="320.2969"/><line style="stroke:#888888;stroke-width:1.0;" x1="60" x2="68" y1="320.2969" y2="320.2969"/><line style="stroke:#888888;stroke-width:1.0;" x1="50" x2="50" y1="252.4531" y2="334.2656"/><line style="stroke:#888888;stroke-width:1.0;" x1="50" x2="58" y1="334.2656" y2="334.2656"/><line style="stroke:#888888;stroke-width:1.0;" x1="50" x2="50" y1="252.4531" y2="348.2344"/><line style="stroke:#888888;stroke-width:1.0;" x1="50" x2="58" y1="348.2344" y2="348.2344"/><line style="stroke:#888888;stroke-width:1.0;" x1="50" x2="50" y1="252.4531" y2="362.2031"/><line style="stroke:#888888;stroke-width:1.0;" x1="50" x2="58" y1="362.2031" y2="362.2031"/><line style="stroke:#888888;stroke-width:1.0;" x1="50" x2="50" y1="252.4531" y2="376.1719"/><line style="stroke:#888888;stroke-width:1.0;" x1="50" x2="58" y1="376.1719" y2="376.1719"/><line style="stroke:#888888;stroke-width:1.0;" x1="50" x2="50" y1="252.4531" y2="390.1406"/><line style="stroke:#888888;stroke-width:1.0;" x1="50" x2="58" y1="390.1406" y2="390.1406"/><rect fill="none" height="2" style="stroke:#888888;stroke-width:1.0;" width="2" x="59" y="403.1094"/><line style="stroke:#888888;stroke-width:1.0;" x1="50" x2="50" y1="252.4531" y2="404.1094"/><line style="stroke:#888888;stroke-width:1.0;" x1="50" x2="58" y1="404.1094" y2="404.1094"/><line style="stroke:#888888;stroke-width:1.0;" x1="60" x2="60" y1="406.1094" y2="418.0781"/><line style="stroke:#888888;stroke-width:1.0;" x1="60" x2="68" y1="418.0781" y2="418.0781"/><line style="stroke:#888888;stroke-width:1.0;" x1="50" x2="50" y1="252.4531" y2="432.0469"/><line style="stroke:#888888;stroke-width:1.0;" x1="50" x2="58" y1="432.0469" y2="432.0469"/><line style="stroke:#888888;stroke-width:1.0;" x1="50" x2="50" y1="252.4531" y2="446.0156"/><line style="stroke:#888888;stroke-width:1.0;" x1="50" x2="58" y1="446.0156" y2="446.0156"/><line style="stroke:#888888;stroke-width:1.0;" x1="40" x2="40" y1="224.5156" y2="459.9844"/><line style="stroke:#888888;stroke-width:1.0;" x1="40" x2="48" y1="459.9844" y2="459.9844"/><!--MD5=[b428a1e1c1ff29bbb74bf7d755af3d31]
@startsalt
{
{T
 + src
 ++ assets
 ++ components
 +++ ErrorMessageModal
 +++ Footer
 +++ Navbar
 ++ services
 ++ config
 +++ API
 +++ arithmetics
 ++ store
 ++ utils
 ++ views
 +++ landingPage
 ++++ Graph
 ++++ Sidebar
 +++++ DownloadModal
 +++++ InputComponents
 ++++++ LatitudeBandSelector
 ++++++ ModelGroupConfigurator
 +++++++ AddModelGroupModal
 +++++++ EditModelGroupModal
 +++++++ ModelGroupCard
 ++++++ OffsetConfigurator
 ++++++ PlotNameField
 ++++++ PlotTypeSelector
 ++++++ ReferenceYearSlider
 ++++++ RegionSelector
 ++++++ TimeCheckboxGroup
 +++++++ SeasonCheckboxGroup
 ++++++ XAxisSlider
 ++++++ YAxisSlider
 +++++ Section
}
}
@endsalt

PlantUML version 1.2021.17beta3(Unknown compile time)
(GPL source distribution)
Java Runtime: Java(TM) SE Runtime Environment
JVM: Java HotSpot(TM) 64-Bit Server VM
Default Encoding: UTF-8
Language: en
Country: US
--></g></svg>