<?xml version="1.0" encoding="UTF-8" standalone="no"?><svg xmlns="http://www.w3.org/2000/svg" xmlns:xlink="http://www.w3.org/1999/xlink" contentScriptType="application/ecmascript" contentStyleType="text/css" height="1049px" preserveAspectRatio="none" style="width:913px;height:1049px;background:#FFFFFF;" version="1.1" viewBox="0 0 913 1049" width="913px" zoomAndPan="magnify"><defs><filter height="300%" id="fezyrnksf669o" width="300%" x="-1" y="-1"><feGaussianBlur result="blurOut" stdDeviation="2.0"/><feColorMatrix in="blurOut" result="blurOut2" type="matrix" values="0 0 0 0 0 0 0 0 0 0 0 0 0 0 0 0 0 0 .4 0"/><feOffset dx="4.0" dy="4.0" in="blurOut2" result="blurOut3"/><feBlend in="SourceGraphic" in2="blurOut3" mode="normal"/></filter></defs><g><text fill="#000000" font-family="sans-serif" font-size="18" lengthAdjust="spacing" textLength="138" x="384" y="28.708">Customize Plot</text><rect fill="#FFFFFF" filter="url(#fezyrnksf669o)" height="29.1328" style="stroke:#A80036;stroke-width:1.0;" width="10" x="155" y="539.9766"/><rect fill="#FFFFFF" filter="url(#fezyrnksf669o)" height="29.1328" style="stroke:#A80036;stroke-width:1.0;" width="10" x="155" y="728.7734"/><rect fill="#FFFFFF" filter="url(#fezyrnksf669o)" height="29.1328" style="stroke:#A80036;stroke-width:1.0;" width="10" x="155" y="917.5703"/><rect fill="#FFFFFF" filter="url(#fezyrnksf669o)" height="35.1328" style="stroke:#A80036;stroke-width:1.0;" width="10" x="232.5" y="197.5156"/><rect fill="#FFFFFF" filter="url(#fezyrnksf669o)" height="35.1328" style="stroke:#A80036;stroke-width:1.0;" width="10" x="359" y="268.7813"/><rect fill="#FFFFFF" filter="url(#fezyrnksf669o)" height="58.2656" style="stroke:#A80036;stroke-width:1.0;" width="10" x="359" y="481.7109"/><rect fill="#FFFFFF" filter="url(#fezyrnksf669o)" height="58.2656" style="stroke:#A80036;stroke-width:1.0;" width="10" x="359" y="670.5078"/><rect fill="#FFFFFF" filter="url(#fezyrnksf669o)" height="58.2656" style="stroke:#A80036;stroke-width:1.0;" width="10" x="359" y="859.3047"/><rect fill="#FFFFFF" filter="url(#fezyrnksf669o)" height="127.6641" style="stroke:#A80036;stroke-width:1.0;" width="10" x="513.5" y="383.1797"/><rect fill="#FFFFFF" filter="url(#fezyrnksf669o)" height="58.2656" style="stroke:#A80036;stroke-width:1.0;" width="10" x="656" y="641.375"/><rect fill="#FFFFFF" filter="url(#fezyrnksf669o)" height="58.2656" style="stroke:#A80036;stroke-width:1.0;" width="10" x="815" y="830.1719"/><line style="stroke:#A80036;stroke-width:1.0;stroke-dasharray:5.0,5.0;" x1="23" x2="23" y1="123.25" y2="964.7031"/><line style="stroke:#A80036;stroke-width:1.0;stroke-dasharray:5.0,5.0;" x1="76" x2="76" y1="123.25" y2="964.7031"/><line style="stroke:#A80036;stroke-width:1.0;stroke-dasharray:5.0,5.0;" x1="160" x2="160" y1="123.25" y2="964.7031"/><line style="stroke:#A80036;stroke-width:1.0;stroke-dasharray:5.0,5.0;" x1="237" x2="237" y1="123.25" y2="964.7031"/><line style="stroke:#A80036;stroke-width:1.0;stroke-dasharray:5.0,5.0;" x1="364" x2="364" y1="123.25" y2="964.7031"/><line style="stroke:#A80036;stroke-width:1.0;stroke-dasharray:5.0,5.0;" x1="518" x2="518" y1="123.25" y2="964.7031"/><line style="stroke:#A80036;stroke-width:1.0;stroke-dasharray:5.0,5.0;" x1="661" x2="661" y1="123.25" y2="964.7031"/><line style="stroke:#A80036;stroke-width:1.0;stroke-dasharray:5.0,5.0;" x1="820" x2="820" y1="123.25" y2="964.7031"/><text fill="#000000" font-family="sans-serif" font-size="14" lengthAdjust="spacing" textLength="31" x="5" y="119.9482">User</text><ellipse cx="23.5" cy="49.9531" fill="#FEFECE" filter="url(#fezyrnksf669o)" rx="8" ry="8" style="stroke:#A80036;stroke-width:2.0;"/><path d="M23.5,57.9531 L23.5,84.9531 M10.5,65.9531 L36.5,65.9531 M23.5,84.9531 L10.5,99.9531 M23.5,84.9531 L36.5,99.9531 " fill="none" filter="url(#fezyrnksf669o)" style="stroke:#A80036;stroke-width:2.0;"/><text fill="#000000" font-family="sans-serif" font-size="14" lengthAdjust="spacing" textLength="31" x="5" y="976.6982">User</text><ellipse cx="23.5" cy="990" fill="#FEFECE" filter="url(#fezyrnksf669o)" rx="8" ry="8" style="stroke:#A80036;stroke-width:2.0;"/><path d="M23.5,998 L23.5,1025 M10.5,1006 L36.5,1006 M23.5,1025 L10.5,1040 M23.5,1025 L36.5,1040 " fill="none" filter="url(#fezyrnksf669o)" style="stroke:#A80036;stroke-width:2.0;"/><rect fill="#FEFECE" filter="url(#fezyrnksf669o)" height="30.2969" style="stroke:#A80036;stroke-width:1.5;" width="44" x="52" y="87.9531"/><text fill="#000000" font-family="sans-serif" font-size="14" lengthAdjust="spacing" textLength="30" x="59" y="107.9482">App</text><rect fill="#FEFECE" filter="url(#fezyrnksf669o)" height="30.2969" style="stroke:#A80036;stroke-width:1.5;" width="44" x="52" y="963.7031"/><text fill="#000000" font-family="sans-serif" font-size="14" lengthAdjust="spacing" textLength="30" x="59" y="983.6982">App</text><rect fill="#FEFECE" filter="url(#fezyrnksf669o)" height="30.2969" style="stroke:#A80036;stroke-width:1.5;" width="58" x="129" y="87.9531"/><text fill="#000000" font-family="sans-serif" font-size="14" lengthAdjust="spacing" textLength="44" x="136" y="107.9482">Graph</text><rect fill="#FEFECE" filter="url(#fezyrnksf669o)" height="30.2969" style="stroke:#A80036;stroke-width:1.5;" width="58" x="129" y="963.7031"/><text fill="#000000" font-family="sans-serif" font-size="14" lengthAdjust="spacing" textLength="44" x="136" y="983.6982">Graph</text><rect fill="#FEFECE" filter="url(#fezyrnksf669o)" height="30.2969" style="stroke:#A80036;stroke-width:1.5;" width="69" x="201" y="87.9531"/><text fill="#000000" font-family="sans-serif" font-size="14" lengthAdjust="spacing" textLength="55" x="208" y="107.9482">Sidebar</text><rect fill="#FEFECE" filter="url(#fezyrnksf669o)" height="30.2969" style="stroke:#A80036;stroke-width:1.5;" width="69" x="201" y="963.7031"/><text fill="#000000" font-family="sans-serif" font-size="14" lengthAdjust="spacing" textLength="55" x="208" y="983.6982">Sidebar</text><rect fill="#FEFECE" filter="url(#fezyrnksf669o)" height="30.2969" style="stroke:#A80036;stroke-width:1.5;" width="156" x="284" y="87.9531"/><text fill="#000000" font-family="sans-serif" font-size="14" lengthAdjust="spacing" textLength="142" x="291" y="107.9482">AppearanceSection</text><rect fill="#FEFECE" filter="url(#fezyrnksf669o)" height="30.2969" style="stroke:#A80036;stroke-width:1.5;" width="156" x="284" y="963.7031"/><text fill="#000000" font-family="sans-serif" font-size="14" lengthAdjust="spacing" textLength="142" x="291" y="983.6982">AppearanceSection</text><rect fill="#FFFFFF" filter="url(#fezyrnksf669o)" height="30.2969" style="stroke:#A80036;stroke-width:1.5;" width="125" x="454" y="87.9531"/><text fill="#000000" font-family="sans-serif" font-size="14" lengthAdjust="spacing" textLength="111" x="461" y="107.9482">MaterialListBox</text><rect fill="#FFFFFF" filter="url(#fezyrnksf669o)" height="30.2969" style="stroke:#A80036;stroke-width:1.5;" width="125" x="454" y="963.7031"/><text fill="#000000" font-family="sans-serif" font-size="14" lengthAdjust="spacing" textLength="111" x="461" y="983.6982">MaterialListBox</text><rect fill="#FFFFFF" filter="url(#fezyrnksf669o)" height="30.2969" style="stroke:#A80036;stroke-width:1.5;" width="132" x="593" y="87.9531"/><text fill="#000000" font-family="sans-serif" font-size="14" lengthAdjust="spacing" textLength="118" x="600" y="107.9482">MaterialTextBox</text><rect fill="#FFFFFF" filter="url(#fezyrnksf669o)" height="30.2969" style="stroke:#A80036;stroke-width:1.5;" width="132" x="593" y="963.7031"/><text fill="#000000" font-family="sans-serif" font-size="14" lengthAdjust="spacing" textLength="118" x="600" y="983.6982">MaterialTextBox</text><rect fill="#FFFFFF" filter="url(#fezyrnksf669o)" height="30.2969" style="stroke:#A80036;stroke-width:1.5;" width="158" x="739" y="87.9531"/><text fill="#000000" font-family="sans-serif" font-size="14" lengthAdjust="spacing" textLength="144" x="746" y="107.9482">MaterialRangeSlider</text><rect fill="#FFFFFF" filter="url(#fezyrnksf669o)" height="30.2969" style="stroke:#A80036;stroke-width:1.5;" width="158" x="739" y="963.7031"/><text fill="#000000" font-family="sans-serif" font-size="14" lengthAdjust="spacing" textLength="144" x="746" y="983.6982">MaterialRangeSlider</text><rect fill="#FFFFFF" filter="url(#fezyrnksf669o)" height="29.1328" style="stroke:#A80036;stroke-width:1.0;" width="10" x="155" y="539.9766"/><rect fill="#FFFFFF" filter="url(#fezyrnksf669o)" height="29.1328" style="stroke:#A80036;stroke-width:1.0;" width="10" x="155" y="728.7734"/><rect fill="#FFFFFF" filter="url(#fezyrnksf669o)" height="29.1328" style="stroke:#A80036;stroke-width:1.0;" width="10" x="155" y="917.5703"/><rect fill="#FFFFFF" filter="url(#fezyrnksf669o)" height="35.1328" style="stroke:#A80036;stroke-width:1.0;" width="10" x="232.5" y="197.5156"/><rect fill="#FFFFFF" filter="url(#fezyrnksf669o)" height="35.1328" style="stroke:#A80036;stroke-width:1.0;" width="10" x="359" y="268.7813"/><rect fill="#FFFFFF" filter="url(#fezyrnksf669o)" height="58.2656" style="stroke:#A80036;stroke-width:1.0;" width="10" x="359" y="481.7109"/><rect fill="#FFFFFF" filter="url(#fezyrnksf669o)" height="58.2656" style="stroke:#A80036;stroke-width:1.0;" width="10" x="359" y="670.5078"/><rect fill="#FFFFFF" filter="url(#fezyrnksf669o)" height="58.2656" style="stroke:#A80036;stroke-width:1.0;" width="10" x="359" y="859.3047"/><rect fill="#FFFFFF" filter="url(#fezyrnksf669o)" height="127.6641" style="stroke:#A80036;stroke-width:1.0;" width="10" x="513.5" y="383.1797"/><rect fill="#FFFFFF" filter="url(#fezyrnksf669o)" height="58.2656" style="stroke:#A80036;stroke-width:1.0;" width="10" x="656" y="641.375"/><rect fill="#FFFFFF" filter="url(#fezyrnksf669o)" height="58.2656" style="stroke:#A80036;stroke-width:1.0;" width="10" x="815" y="830.1719"/><rect fill="#EEEEEE" filter="url(#fezyrnksf669o)" height="3" style="stroke:#EEEEEE;stroke-width:1.0;" width="906" x="0" y="153.8164"/><line style="stroke:#000000;stroke-width:1.0;" x1="0" x2="906" y1="153.8164" y2="153.8164"/><line style="stroke:#000000;stroke-width:1.0;" x1="0" x2="906" y1="156.8164" y2="156.8164"/><rect fill="#EEEEEE" filter="url(#fezyrnksf669o)" height="23.1328" style="stroke:#000000;stroke-width:2.0;" width="114" x="396" y="143.25"/><text fill="#000000" font-family="sans-serif" font-size="13" font-weight="bold" lengthAdjust="spacing" textLength="95" x="402" y="159.3169">Initialization</text><polygon fill="#A80036" points="220.5,193.5156,230.5,197.5156,220.5,201.5156,224.5,197.5156" style="stroke:#A80036;stroke-width:1.0;"/><line style="stroke:#A80036;stroke-width:1.0;" x1="23.5" x2="226.5" y1="197.5156" y2="197.5156"/><text fill="#000000" font-family="sans-serif" font-size="13" lengthAdjust="spacing" textLength="57" x="30.5" y="192.4497">OnClick()</text><line style="stroke:#A80036;stroke-width:1.0;" x1="242.5" x2="284.5" y1="231.6484" y2="231.6484"/><line style="stroke:#A80036;stroke-width:1.0;" x1="284.5" x2="284.5" y1="231.6484" y2="244.6484"/><line style="stroke:#A80036;stroke-width:1.0;" x1="237.5" x2="284.5" y1="244.6484" y2="244.6484"/><polygon fill="#A80036" points="247.5,240.6484,237.5,244.6484,247.5,248.6484,243.5,244.6484" style="stroke:#A80036;stroke-width:1.0;"/><text fill="#000000" font-family="sans-serif" font-size="13" lengthAdjust="spacing" textLength="58" x="249.5" y="226.5825">expand()</text><polygon fill="#A80036" points="347,264.7813,357,268.7813,347,272.7813,351,268.7813" style="stroke:#A80036;stroke-width:1.0;"/><line style="stroke:#A80036;stroke-width:1.0;" x1="23.5" x2="353" y1="268.7813" y2="268.7813"/><text fill="#000000" font-family="sans-serif" font-size="13" lengthAdjust="spacing" textLength="57" x="30.5" y="263.7153">OnClick()</text><line style="stroke:#A80036;stroke-width:1.0;" x1="369" x2="411" y1="302.9141" y2="302.9141"/><line style="stroke:#A80036;stroke-width:1.0;" x1="411" x2="411" y1="302.9141" y2="315.9141"/><line style="stroke:#A80036;stroke-width:1.0;" x1="364" x2="411" y1="315.9141" y2="315.9141"/><polygon fill="#A80036" points="374,311.9141,364,315.9141,374,319.9141,370,315.9141" style="stroke:#A80036;stroke-width:1.0;"/><text fill="#000000" font-family="sans-serif" font-size="13" lengthAdjust="spacing" textLength="58" x="376" y="297.8481">expand()</text><rect fill="#EEEEEE" filter="url(#fezyrnksf669o)" height="3" style="stroke:#EEEEEE;stroke-width:1.0;" width="906" x="0" y="339.4805"/><line style="stroke:#000000;stroke-width:1.0;" x1="0" x2="906" y1="339.4805" y2="339.4805"/><line style="stroke:#000000;stroke-width:1.0;" x1="0" x2="906" y1="342.4805" y2="342.4805"/><rect fill="#EEEEEE" filter="url(#fezyrnksf669o)" height="23.1328" style="stroke:#000000;stroke-width:2.0;" width="296" x="305" y="328.9141"/><text fill="#000000" font-family="sans-serif" font-size="13" font-weight="bold" lengthAdjust="spacing" textLength="277" x="311" y="344.981">Switch between different plot types</text><polygon fill="#A80036" points="501.5,379.1797,511.5,383.1797,501.5,387.1797,505.5,383.1797" style="stroke:#A80036;stroke-width:1.0;"/><line style="stroke:#A80036;stroke-width:1.0;" x1="23.5" x2="507.5" y1="383.1797" y2="383.1797"/><text fill="#000000" font-family="sans-serif" font-size="13" lengthAdjust="spacing" textLength="57" x="30.5" y="378.1138">OnClick()</text><path d="M293,396.1797 L293,451.1797 L430,451.1797 L430,406.1797 L420,396.1797 L293,396.1797 " fill="#FBFB77" filter="url(#fezyrnksf669o)" style="stroke:#A80036;stroke-width:1.0;"/><path d="M420,396.1797 L420,406.1797 L430,406.1797 L420,396.1797 " fill="#FBFB77" style="stroke:#A80036;stroke-width:1.0;"/><text fill="#000000" font-family="sans-serif" font-size="13" lengthAdjust="spacing" textLength="109" x="299" y="413.2466">Wait for the User</text><text fill="#000000" font-family="sans-serif" font-size="13" lengthAdjust="spacing" textLength="108" x="303" y="428.3794">to select an item</text><text fill="#000000" font-family="sans-serif" font-size="13" lengthAdjust="spacing" textLength="86" x="303" y="443.5122">in the ListBox</text><polygon fill="#A80036" points="501.5,477.7109,511.5,481.7109,501.5,485.7109,505.5,481.7109" style="stroke:#A80036;stroke-width:1.0;"/><line style="stroke:#A80036;stroke-width:1.0;" x1="369" x2="507.5" y1="481.7109" y2="481.7109"/><text fill="#000000" font-family="sans-serif" font-size="13" lengthAdjust="spacing" textLength="63" x="376" y="476.645">getType()</text><line style="stroke:#A80036;stroke-width:1.0;" x1="369" x2="379" y1="510.8438" y2="506.8438"/><line style="stroke:#A80036;stroke-width:1.0;" x1="369" x2="379" y1="510.8438" y2="514.8438"/><line style="stroke:#A80036;stroke-width:1.0;" x1="369" x2="517.5" y1="510.8438" y2="510.8438"/><text fill="#000000" font-family="sans-serif" font-size="13" lengthAdjust="spacing" textLength="29" x="386" y="505.7778">type</text><polygon fill="#A80036" points="176,535.9766,166,539.9766,176,543.9766,172,539.9766" style="stroke:#A80036;stroke-width:1.0;"/><line style="stroke:#A80036;stroke-width:1.0;" x1="170" x2="363" y1="539.9766" y2="539.9766"/><text fill="#000000" font-family="sans-serif" font-size="13" lengthAdjust="spacing" textLength="91" x="182" y="534.9106">setType(type)</text><polygon fill="#A80036" points="87,565.1094,77,569.1094,87,573.1094,83,569.1094" style="stroke:#A80036;stroke-width:1.0;"/><line style="stroke:#A80036;stroke-width:1.0;" x1="81" x2="159" y1="569.1094" y2="569.1094"/><text fill="#000000" font-family="sans-serif" font-size="13" lengthAdjust="spacing" textLength="55" x="93" y="564.0435">update()</text><rect fill="#EEEEEE" filter="url(#fezyrnksf669o)" height="3" style="stroke:#EEEEEE;stroke-width:1.0;" width="906" x="0" y="597.6758"/><line style="stroke:#000000;stroke-width:1.0;" x1="0" x2="906" y1="597.6758" y2="597.6758"/><line style="stroke:#000000;stroke-width:1.0;" x1="0" x2="906" y1="600.6758" y2="600.6758"/><rect fill="#EEEEEE" filter="url(#fezyrnksf669o)" height="23.1328" style="stroke:#000000;stroke-width:2.0;" width="112" x="397" y="587.1094"/><text fill="#000000" font-family="sans-serif" font-size="13" font-weight="bold" lengthAdjust="spacing" textLength="93" x="403" y="603.1763">Change title</text><line style="stroke:#A80036;stroke-width:1.0;" x1="654" x2="644" y1="641.375" y2="637.375"/><line style="stroke:#A80036;stroke-width:1.0;" x1="654" x2="644" y1="641.375" y2="645.375"/><line style="stroke:#A80036;stroke-width:1.0;" x1="23.5" x2="655" y1="641.375" y2="641.375"/><text fill="#000000" font-family="sans-serif" font-size="13" lengthAdjust="spacing" textLength="32" x="30.5" y="636.3091">input</text><polygon fill="#A80036" points="644,666.5078,654,670.5078,644,674.5078,648,670.5078" style="stroke:#A80036;stroke-width:1.0;"/><line style="stroke:#A80036;stroke-width:1.0;" x1="369" x2="650" y1="670.5078" y2="670.5078"/><text fill="#000000" font-family="sans-serif" font-size="13" lengthAdjust="spacing" textLength="63" x="376" y="665.4419">getInput()</text><line style="stroke:#A80036;stroke-width:1.0;" x1="369" x2="379" y1="699.6406" y2="695.6406"/><line style="stroke:#A80036;stroke-width:1.0;" x1="369" x2="379" y1="699.6406" y2="703.6406"/><line style="stroke:#A80036;stroke-width:1.0;" x1="369" x2="660" y1="699.6406" y2="699.6406"/><text fill="#000000" font-family="sans-serif" font-size="13" lengthAdjust="spacing" textLength="32" x="386" y="694.5747">input</text><polygon fill="#A80036" points="176,724.7734,166,728.7734,176,732.7734,172,728.7734" style="stroke:#A80036;stroke-width:1.0;"/><line style="stroke:#A80036;stroke-width:1.0;" x1="170" x2="363" y1="728.7734" y2="728.7734"/><text fill="#000000" font-family="sans-serif" font-size="13" lengthAdjust="spacing" textLength="89" x="182" y="723.7075">setTitle(input)</text><polygon fill="#A80036" points="87,753.9063,77,757.9063,87,761.9063,83,757.9063" style="stroke:#A80036;stroke-width:1.0;"/><line style="stroke:#A80036;stroke-width:1.0;" x1="81" x2="159" y1="757.9063" y2="757.9063"/><text fill="#000000" font-family="sans-serif" font-size="13" lengthAdjust="spacing" textLength="55" x="93" y="752.8403">update()</text><rect fill="#EEEEEE" filter="url(#fezyrnksf669o)" height="3" style="stroke:#EEEEEE;stroke-width:1.0;" width="906" x="0" y="786.4727"/><line style="stroke:#000000;stroke-width:1.0;" x1="0" x2="906" y1="786.4727" y2="786.4727"/><line style="stroke:#000000;stroke-width:1.0;" x1="0" x2="906" y1="789.4727" y2="789.4727"/><rect fill="#EEEEEE" filter="url(#fezyrnksf669o)" height="23.1328" style="stroke:#000000;stroke-width:2.0;" width="269" x="318.5" y="775.9063"/><text fill="#000000" font-family="sans-serif" font-size="13" font-weight="bold" lengthAdjust="spacing" textLength="250" x="324.5" y="791.9731">Toggle range of x-axis and y-axis</text><polygon fill="#A80036" points="803,826.1719,813,830.1719,803,834.1719,807,830.1719" style="stroke:#A80036;stroke-width:1.0;"/><line style="stroke:#A80036;stroke-width:1.0;" x1="23.5" x2="809" y1="830.1719" y2="830.1719"/><text fill="#000000" font-family="sans-serif" font-size="13" lengthAdjust="spacing" textLength="50" x="30.5" y="825.106">toggle()</text><polygon fill="#A80036" points="803,855.3047,813,859.3047,803,863.3047,807,859.3047" style="stroke:#A80036;stroke-width:1.0;"/><line style="stroke:#A80036;stroke-width:1.0;" x1="369" x2="809" y1="859.3047" y2="859.3047"/><text fill="#000000" font-family="sans-serif" font-size="13" lengthAdjust="spacing" textLength="72" x="376" y="854.2388">getRange()</text><line style="stroke:#A80036;stroke-width:1.0;" x1="369" x2="379" y1="888.4375" y2="884.4375"/><line style="stroke:#A80036;stroke-width:1.0;" x1="369" x2="379" y1="888.4375" y2="892.4375"/><line style="stroke:#A80036;stroke-width:1.0;" x1="369" x2="819" y1="888.4375" y2="888.4375"/><text fill="#000000" font-family="sans-serif" font-size="13" lengthAdjust="spacing" textLength="37" x="386" y="883.3716">range</text><polygon fill="#A80036" points="176,913.5703,166,917.5703,176,921.5703,172,917.5703" style="stroke:#A80036;stroke-width:1.0;"/><line style="stroke:#A80036;stroke-width:1.0;" x1="170" x2="363" y1="917.5703" y2="917.5703"/><text fill="#000000" font-family="sans-serif" font-size="13" lengthAdjust="spacing" textLength="108" x="182" y="912.5044">setRange(range)</text><polygon fill="#A80036" points="87,942.7031,77,946.7031,87,950.7031,83,946.7031" style="stroke:#A80036;stroke-width:1.0;"/><line style="stroke:#A80036;stroke-width:1.0;" x1="81" x2="159" y1="946.7031" y2="946.7031"/><text fill="#000000" font-family="sans-serif" font-size="13" lengthAdjust="spacing" textLength="55" x="93" y="941.6372">update()</text><!--MD5=[257f50e1452a8ef00a3c88698ea4a1a3]
@startuml
title "Customize Plot"

actor User
participant App
participant Graph
participant Sidebar
participant AppearanceSection
participant MaterialListBox as MDListBox #white
participant MaterialTextBox as MDTextBox #white
participant MaterialRangeSlider as MDRangeSlider #white

== Initialization ==
User -> Sidebar : OnClick()
activate Sidebar
Sidebar-> Sidebar : expand()
deactivate Sidebar
User -> AppearanceSection : OnClick()
activate AppearanceSection
AppearanceSection -> AppearanceSection : expand()
deactivate AppearanceSection

== Switch between different plot types ==
User -> MDListBox : OnClick()
activate MDListBox 
note over AppearanceSection : Wait for the User \n to select an item \n in the ListBox
AppearanceSection -> MDListBox : getType()
activate AppearanceSection
MDListBox ->> AppearanceSection : type
deactivate MDListBox 
AppearanceSection -> Graph : setType(type)
deactivate AppearanceSection
activate Graph
Graph -> App : update()
deactivate Graph

== Change title ==
User ->> MDTextBox : input
activate MDTextBox 
AppearanceSection -> MDTextBox : getInput()
activate AppearanceSection 
MDTextBox  ->> AppearanceSection: input
deactivate MDTextBox 
AppearanceSection -> Graph : setTitle(input)
deactivate AppearanceSection 
activate Graph
Graph -> App : update()
deactivate Graph

== Toggle range of x-axis and y-axis ==
User -> MDRangeSlider : toggle()
activate MDRangeSlider
AppearanceSection -> MDRangeSlider : getRange()
activate AppearanceSection
MDRangeSlider ->> AppearanceSection : range
deactivate MDRangeSlider
AppearanceSection -> Graph : setRange(range)
deactivate AppearanceSection
activate Graph
Graph -> App : update()
deactivate Graph
@enduml

PlantUML version 1.2021.16beta3(Unknown compile time)
(GPL source distribution)
Java Runtime: Java(TM) SE Runtime Environment
JVM: Java HotSpot(TM) 64-Bit Server VM
Default Encoding: UTF-8
Language: en
Country: US
--></g></svg>